<svg width="512" height="512" viewBox="0 0 512 512" fill="none" xmlns="http://www.w3.org/2000/svg">
<g clip-path="url(#clip0_1_2)">
<path d="M0 0H512V512H0" fill="#BD3D44"/>
<path d="M0 58H512ZM0 137H512ZM0 216H512ZM0 295H512ZM0 374H512ZM0 453H512Z" fill="black"/>
<path d="M0 58H512M0 137H512M0 216H512M0 295H512M0 374H512M0 453H512" stroke="white" stroke-width="40"/>
<path d="M0 0H390V275H0V0Z" fill="#192F5D"/>
<path d="M32.9828 12L42.2427 40.499L18 22.8856H47.9656L23.7229 40.499L32.9828 12Z" fill="white"/>
<path d="M32.9828 67.1385L42.2427 95.6374L18 78.0241H47.9656L23.7229 95.6374L32.9828 67.1385Z" fill="white"/>
<path d="M32.9828 122.277L42.2427 150.776L18 133.163H47.9656L23.7229 150.776L32.9828 122.277Z" fill="white"/>
<path d="M32.9828 177.415L42.2427 205.914L18 188.301H47.9656L23.7229 205.914L32.9828 177.415Z" fill="white"/>
<path d="M32.9828 232.554L42.2427 261.053L18 243.439H47.9656L23.7229 261.053L32.9828 232.554Z" fill="white"/>
<path d="M65.4095 39.5692L74.6693 68.0682L50.4267 50.4549H80.3923L56.1496 68.0682L65.4095 39.5692Z" fill="white"/>
<path d="M65.4095 94.7077L74.6693 123.207L50.4267 105.593H80.3923L56.1496 123.207L65.4095 94.7077Z" fill="white"/>
<path d="M65.4095 149.846L74.6693 178.345L50.4267 160.732H80.3923L56.1496 178.345L65.4095 149.846Z" fill="white"/>
<path d="M65.4095 204.985L74.6693 233.484L50.4267 215.87H80.3923L56.1496 233.484L65.4095 204.985Z" fill="white"/>
<path d="M97.8361 12L107.096 40.499L82.8533 22.8856H112.819L88.5763 40.499L97.8361 12Z" fill="white"/>
<path d="M97.8361 67.1385L107.096 95.6374L82.8533 78.0241H112.819L88.5763 95.6374L97.8361 67.1385Z" fill="white"/>
<path d="M97.8361 122.277L107.096 150.776L82.8533 133.163H112.819L88.5763 150.776L97.8361 122.277Z" fill="white"/>
<path d="M97.8361 177.415L107.096 205.914L82.8533 188.301H112.819L88.5763 205.914L97.8361 177.415Z" fill="white"/>
<path d="M97.8361 232.554L107.096 261.053L82.8533 243.439H112.819L88.5763 261.053L97.8361 232.554Z" fill="white"/>
<path d="M130.263 39.5692L139.523 68.0682L115.28 50.4549H145.246L121.003 68.0682L130.263 39.5692Z" fill="white"/>
<path d="M130.263 94.7077L139.523 123.207L115.28 105.593H145.246L121.003 123.207L130.263 94.7077Z" fill="white"/>
<path d="M130.263 149.846L139.523 178.345L115.28 160.732H145.246L121.003 178.345L130.263 149.846Z" fill="white"/>
<path d="M130.263 204.985L139.523 233.484L115.28 215.87H145.246L121.003 233.484L130.263 204.985Z" fill="white"/>
<path d="M162.689 12L171.949 40.499L147.707 22.8856H177.672L153.43 40.499L162.689 12Z" fill="white"/>
<path d="M162.689 67.1385L171.949 95.6374L147.707 78.0241H177.672L153.43 95.6374L162.689 67.1385Z" fill="white"/>
<path d="M162.689 122.277L171.949 150.776L147.707 133.163H177.672L153.43 150.776L162.689 122.277Z" fill="white"/>
<path d="M162.689 177.415L171.949 205.914L147.707 188.301H177.672L153.43 205.914L162.689 177.415Z" fill="white"/>
<path d="M162.689 232.554L171.949 261.053L147.707 243.439H177.672L153.43 261.053L162.689 232.554Z" fill="white"/>
<path d="M195.116 39.5692L204.376 68.0682L180.133 50.4549H210.099L185.856 68.0682L195.116 39.5692Z" fill="white"/>
<path d="M195.116 94.7077L204.376 123.207L180.133 105.593H210.099L185.856 123.207L195.116 94.7077Z" fill="white"/>
<path d="M195.116 149.846L204.376 178.345L180.133 160.732H210.099L185.856 178.345L195.116 149.846Z" fill="white"/>
<path d="M195.116 204.985L204.376 233.484L180.133 215.87H210.099L185.856 233.484L195.116 204.985Z" fill="white"/>
<path d="M227.543 12L236.803 40.499L212.56 22.8856H242.526L218.283 40.499L227.543 12Z" fill="white"/>
<path d="M227.543 67.1385L236.803 95.6374L212.56 78.0241H242.526L218.283 95.6374L227.543 67.1385Z" fill="white"/>
<path d="M227.543 122.277L236.803 150.776L212.56 133.163H242.526L218.283 150.776L227.543 122.277Z" fill="white"/>
<path d="M227.543 177.415L236.803 205.914L212.56 188.301H242.526L218.283 205.914L227.543 177.415Z" fill="white"/>
<path d="M227.543 232.554L236.803 261.053L212.56 243.439H242.526L218.283 261.053L227.543 232.554Z" fill="white"/>
<path d="M259.969 39.5692L269.229 68.0682L244.987 50.4549H274.952L250.71 68.0682L259.969 39.5692Z" fill="white"/>
<path d="M259.969 94.7077L269.229 123.207L244.987 105.593H274.952L250.71 123.207L259.969 94.7077Z" fill="white"/>
<path d="M259.969 149.846L269.229 178.345L244.987 160.732H274.952L250.71 178.345L259.969 149.846Z" fill="white"/>
<path d="M259.969 204.985L269.229 233.484L244.987 215.87H274.952L250.71 233.484L259.969 204.985Z" fill="white"/>
<path d="M292.396 12L301.656 40.499L277.413 22.8856H307.379L283.136 40.499L292.396 12Z" fill="white"/>
<path d="M292.396 67.1385L301.656 95.6374L277.413 78.0241H307.379L283.136 95.6374L292.396 67.1385Z" fill="white"/>
<path d="M292.396 122.277L301.656 150.776L277.413 133.163H307.379L283.136 150.776L292.396 122.277Z" fill="white"/>
<path d="M292.396 177.415L301.656 205.914L277.413 188.301H307.379L283.136 205.914L292.396 177.415Z" fill="white"/>
<path d="M292.396 232.554L301.656 261.053L277.413 243.439H307.379L283.136 261.053L292.396 232.554Z" fill="white"/>
<path d="M324.823 39.5692L334.083 68.0682L309.84 50.4549H339.806L315.563 68.0682L324.823 39.5692Z" fill="white"/>
<path d="M324.823 94.7077L334.083 123.207L309.84 105.593H339.806L315.563 123.207L324.823 94.7077Z" fill="white"/>
<path d="M324.823 149.846L334.083 178.345L309.84 160.732H339.806L315.563 178.345L324.823 149.846Z" fill="white"/>
<path d="M324.823 204.985L334.083 233.484L309.84 215.87H339.806L315.563 233.484L324.823 204.985Z" fill="white"/>
<path d="M357.249 12L366.509 40.499L342.267 22.8856H372.232L347.99 40.499L357.249 12Z" fill="white"/>
<path d="M357.249 67.1385L366.509 95.6374L342.267 78.0241H372.232L347.99 95.6374L357.249 67.1385Z" fill="white"/>
<path d="M357.249 122.277L366.509 150.776L342.267 133.163H372.232L347.99 150.776L357.249 122.277Z" fill="white"/>
<path d="M357.249 177.415L366.509 205.914L342.267 188.301H372.232L347.99 205.914L357.249 177.415Z" fill="white"/>
<path d="M357.249 232.554L366.509 261.053L342.267 243.439H372.232L347.99 261.053L357.249 232.554Z" fill="white"/>
</g>
<defs>
<clipPath id="clip0_1_2">
<rect width="512" height="512" fill="white"/>
</clipPath>
</defs>
</svg>
